<?xml version="1.0" encoding="UTF-8"?>
<!-- Generator: visioncortex VTracer 0.6.4 -->
<svg version="1.1" xmlns="http://www.w3.org/2000/svg" width="330" height="330">
<path d="M0 0 C108.9 0 217.8 0 330 0 C330 108.9 330 217.8 330 330 C221.1 330 112.2 330 0 330 C0 221.1 0 112.2 0 0 Z " fill="#EDEEED" transform="translate(0,0)"/>
<path d="M0 0 C2.97167969 1.20239258 2.97167969 1.20239258 5.921875 2.89453125 C7.02152588 3.51553711 8.12117676 4.13654297 9.25415039 4.77636719 C10.41972612 5.45457564 11.58500378 6.13329659 12.75 6.8125 C13.95040885 7.4989148 15.15150593 8.18412734 16.35327148 8.86816406 C18.76432927 10.24380834 21.17008134 11.62809834 23.57177734 13.02001953 C26.67850163 14.81431764 29.79783648 16.58289107 32.92578125 18.33984375 C34.63847236 19.30909842 36.35074372 20.27909534 38.0625 21.25 C38.84657227 21.69061768 39.63064453 22.13123535 40.43847656 22.58520508 C41.15100586 22.99536865 41.86353516 23.40553223 42.59765625 23.828125 C43.51816772 24.3526123 43.51816772 24.3526123 44.45727539 24.88769531 C46 26 46 26 48 29 C48.29991069 31.58885171 48.50865225 34.09149082 48.625 36.6875 C48.66367188 37.38939453 48.70234375 38.09128906 48.7421875 38.81445312 C48.8362334 40.54254655 48.9191968 42.27123675 49 44 C51.52091985 43.62293934 52.72619559 43.29542054 54.484375 41.3984375 C57.35123397 36.81500249 58.94450307 33.56207362 58 28 C55.25289363 23.07810109 51.0771306 21.01074479 46 19 C43.18551086 18.23245168 43.18551086 18.23245168 41 18 C41 17.67 41 17.34 41 17 C48.85532851 16.33927143 54.68374755 16.99963347 61 22 C64.3808551 25.69588932 64.5686553 28.47091467 64.41796875 33.3359375 C63.49115192 39.24331204 60.4244036 43.66849228 56.125 47.6875 C55.42375 48.450625 54.7225 49.21375 54 50 C54.05392193 53.25038489 54.05392193 53.25038489 55 56 C52.69 56 50.38 56 48 56 C48.02618408 56.85231201 48.05236816 57.70462402 48.0793457 58.58276367 C48.16481492 61.76027127 48.22736789 64.9371911 48.2746582 68.11547852 C48.29972617 69.48807102 48.33379082 70.86053102 48.37719727 72.23266602 C48.43817531 74.21050696 48.46361009 76.18934184 48.48828125 78.16796875 C48.51446533 79.35672607 48.54064941 80.5454834 48.56762695 81.77026367 C47.82286714 86.00786693 46.30547463 87.31793508 43 90 C40.31542969 91.78588867 40.31542969 91.78588867 37.421875 93.41796875 C36.35098633 94.02825928 35.28009766 94.6385498 34.17675781 95.26733398 C33.04592773 95.90098877 31.91509766 96.53464355 30.75 97.1875 C28.99082415 98.18187412 27.23294042 99.17850107 25.47528076 100.17555237 C23.7341811 101.16312232 21.99209466 102.14895192 20.25 103.13476562 C17.37806431 104.78302199 14.54129803 106.47210921 11.71875 108.203125 C10.95208008 108.67081299 10.18541016 109.13850098 9.39550781 109.62036133 C8.00832415 110.47196077 6.6269764 111.3331733 5.25292969 112.20581055 C1.34321687 114.58659398 -1.42590395 115.72984201 -6 115 C-11.91920974 111.72413751 -16.68606637 107.30014642 -18.6875 100.75 C-19.132968 96.82988162 -19.07726639 92.94058608 -19 89 C-18.67 89 -18.34 89 -18 89 C-17.79697266 89.87011719 -17.79697266 89.87011719 -17.58984375 90.7578125 C-17.37457031 91.53898437 -17.15929687 92.32015625 -16.9375 93.125 C-16.64166016 94.27355469 -16.64166016 94.27355469 -16.33984375 95.4453125 C-14.30771698 99.31997988 -11.82673459 101.85215457 -8 104 C-4.34127786 104.82118064 -0.80199339 104.88522418 2.9375 104.875 C3.90751953 104.895625 4.87753906 104.91625 5.87695312 104.9375 C8.25093266 104.98427792 10.62556348 104.99573327 13 105 C13 101.7 13 98.4 13 95 C11.80761719 95.03480469 10.61523438 95.06960937 9.38671875 95.10546875 C7.82032658 95.13360753 6.25391919 95.1609076 4.6875 95.1875 C3.90181641 95.21263672 3.11613281 95.23777344 2.30664062 95.26367188 C1.54931641 95.27333984 0.79199219 95.28300781 0.01171875 95.29296875 C-0.68477783 95.3086792 -1.38127441 95.32438965 -2.09887695 95.34057617 C-4.65609689 94.8824637 -5.49723895 94.10247617 -7 92 C-7.34057617 89.82348633 -7.34057617 89.82348633 -7.29296875 87.33203125 C-7.28330078 86.43935547 -7.27363281 85.54667969 -7.26367188 84.62695312 C-7.23853516 83.69818359 -7.21339844 82.76941406 -7.1875 81.8125 C-7.16719727 80.40194336 -7.16719727 80.40194336 -7.14648438 78.96289062 C-7.11113096 76.64134962 -7.06178674 74.32096347 -7 72 C-5.49759766 71.25556641 -5.49759766 71.25556641 -3.96484375 70.49609375 C4.58875934 66.16344246 11.16843304 62.19115523 16.9375 54.375 C19.02603017 47.74084536 19.32131198 40.01378628 16.4375 33.5625 C14.08862063 29.64493441 10.98140698 26.27396565 7 24 C1.80493673 22.75567347 -3.55607219 22.6820957 -8.875 22.4375 C-11.88625 22.293125 -14.8975 22.14875 -18 22 C-18 29.92 -18 37.84 -18 46 C-19.67449219 46.62648437 -21.34898437 47.25296875 -23.07421875 47.8984375 C-25.27865675 48.72392918 -27.48308323 49.54945162 -29.6875 50.375 C-31.34168945 50.99375 -31.34168945 50.99375 -33.02929688 51.625 C-34.09599609 52.02460938 -35.16269531 52.42421875 -36.26171875 52.8359375 C-37.24100342 53.20251465 -38.22028809 53.5690918 -39.22924805 53.94677734 C-41.05862752 54.64216399 -42.88032066 55.35816147 -44.69311523 56.09570312 C-51.09513341 58.60528883 -58.17190597 59.30347085 -65 59 C-65 58.34 -65 57.68 -65 57 C-62.03 56.505 -62.03 56.505 -59 56 C-58.67 55.01 -58.34 54.02 -58 53 C-59.485 53.2475 -59.485 53.2475 -61 53.5 C-65.02732942 54.08474517 -68.93474623 54.07132024 -73 54 C-73 53.34 -73 52.68 -73 52 C-70.20869212 51.49792321 -67.41699129 50.99824925 -64.625 50.5 C-63.8309375 50.35691406 -63.036875 50.21382812 -62.21875 50.06640625 C-56.2265625 49 -56.2265625 49 -54 49 C-54 48.01 -54 47.02 -54 46 C-55.7634375 46.495 -55.7634375 46.495 -57.5625 47 C-61.5011676 47.9969533 -64.95139129 48.16869203 -69 48 C-68.67 47.01 -68.34 46.02 -68 45 C-66.52466797 44.79697266 -66.52466797 44.79697266 -65.01953125 44.58984375 C-56.39509394 43.29275367 -48.21392399 41.32915457 -39.9375 38.5625 C-38.63679565 38.13022095 -38.63679565 38.13022095 -37.30981445 37.68920898 C-33.22847861 36.28259801 -29.34971847 34.7439818 -25.50390625 32.77734375 C-22 31 -22 31 -20 31 C-20 30.34 -20 29.68 -20 29 C-20.54825439 29.2266333 -21.09650879 29.4532666 -21.66137695 29.68676758 C-46.71756309 40 -46.71756309 40 -54 40 C-54.19100371 38.29612567 -54.32572126 36.58589908 -54.4375 34.875 C-54.51871094 33.92367187 -54.59992188 32.97234375 -54.68359375 31.9921875 C-53.62580588 27.36209889 -50.83026993 25.5995348 -47 23 C-43.07076747 20.59424508 -39.05108423 18.3804448 -35 16.1875 C-26.03483839 11.31447947 -26.03483839 11.31447947 -17.2734375 6.08984375 C-16.60054687 5.66743408 -15.92765625 5.24502441 -15.234375 4.80981445 C-13.51023646 3.71117418 -11.79755835 2.59460463 -10.0859375 1.4765625 C-6.35750714 -0.30742063 -4.10696712 -0.30511859 0 0 Z " fill="#0F3557" transform="translate(168,76)"/>
<path d="M0 0 C4.12541445 2.89893988 6.0733704 5.34951477 8 10 C8.89363582 16.93976643 9.07522784 24.23627555 5.296875 30.34375 C0.53366262 36.42688871 -5.6839649 39.63957854 -12.4934082 43.02148438 C-19.68749952 46.65066731 -24.41409286 50.69537435 -28 58 C-29.98800014 64.40136046 -30.104766 71.53308151 -27.0625 77.5625 C-26.39203832 78.71838555 -25.70744996 79.86637536 -25 81 C-24.505 81.99 -24.505 81.99 -24 83 C-32.58985831 78.78424005 -40.63815551 74.58505621 -45.13671875 65.7734375 C-47.37873027 58.57059507 -47.37149367 47.56804161 -44.08203125 40.71875 C-38.37536486 31.65400917 -29.61953309 25.53349691 -19.65234375 21.71875 C-16.64021266 20.19948493 -16.64021266 20.19948493 -16.1953125 16.64453125 C-16.17210937 15.37996094 -16.14890625 14.11539063 -16.125 12.8125 C-16.08632812 11.54019531 -16.04765625 10.26789063 -16.0078125 8.95703125 C-16.00523437 7.98121094 -16.00265625 7.00539063 -16 6 C-10.49633208 5.67625483 -6.56327794 5.46713966 -2 9 C0.29013653 5.5647952 0.17842973 4.014669 0 0 Z " fill="#1EB1C1" transform="translate(176,102)"/>
<path d="M0 0 C0.33 5.28 0.66 10.56 1 16 C-2.64067722 17.39649473 -6.28297884 18.78664477 -9.93139648 20.16259766 C-11.76860112 20.85837483 -13.60212825 21.56383804 -15.43554688 22.26953125 C-24.84436322 25.80745129 -33.88456097 28.44957507 -44 28 C-44 27.34 -44 26.68 -44 26 C-42.02 25.67 -40.04 25.34 -38 25 C-37.67 24.01 -37.34 23.02 -37 22 C-38.485 22.2475 -38.485 22.2475 -40 22.5 C-44.02732942 23.08474517 -47.93474623 23.07132024 -52 23 C-52 22.34 -52 21.68 -52 21 C-49.20869212 20.49792321 -46.41699129 19.99824925 -43.625 19.5 C-42.8309375 19.35691406 -42.036875 19.21382812 -41.21875 19.06640625 C-35.2265625 18 -35.2265625 18 -33 18 C-33 17.01 -33 16.02 -33 15 C-34.7634375 15.495 -34.7634375 15.495 -36.5625 16 C-40.5011676 16.9969533 -43.95139129 17.16869203 -48 17 C-47.67 16.01 -47.34 15.02 -47 14 C-46.01644531 13.86464844 -45.03289062 13.72929688 -44.01953125 13.58984375 C-35.39509394 12.29275367 -27.21392399 10.32915457 -18.9375 7.5625 C-18.07036377 7.27431396 -17.20322754 6.98612793 -16.30981445 6.68920898 C-11.80357456 5.13615706 -4.44672695 0 0 0 Z " fill="#1BB2C1" transform="translate(147,107)"/>
<path d="M0 0 C0.66 0.33 1.32 0.66 2 1 C1.54109375 1.47308594 1.0821875 1.94617188 0.609375 2.43359375 C-7.41600173 11.08279178 -9.44588592 17.61186015 -9.43359375 29.44921875 C-8.97198265 33.22943936 -7.76284645 35.66475312 -6 39 C-6.33 39.66 -6.66 40.32 -7 41 C-9.29965163 39.76311165 -11.58894675 38.51157929 -13.875 37.25 C-14.85146484 36.72792969 -14.85146484 36.72792969 -15.84765625 36.1953125 C-19.45402332 34.18764423 -21.57288661 32.89181406 -23 29 C-23.22705078 26.43457031 -23.22705078 26.43457031 -23.1953125 23.578125 C-23.18564453 22.04091797 -23.18564453 22.04091797 -23.17578125 20.47265625 C-23.15902344 19.40917969 -23.14226562 18.34570312 -23.125 17.25 C-23.11597656 16.17105469 -23.10695313 15.09210938 -23.09765625 13.98046875 C-23.07411305 11.32008722 -23.04122799 8.66015664 -23 6 C-21.64068359 5.72736328 -21.64068359 5.72736328 -20.25390625 5.44921875 C-11.89965928 3.73011118 -11.89965928 3.73011118 -3.75 1.25 C-2.5125 0.8375 -1.275 0.425 0 0 Z " fill="#0F3256" transform="translate(137,131)"/>
<path d="M0 0 C3.12578143 1.6720747 5.39281175 3.7856235 7 7 C7.68128376 13.81283762 7.68128376 13.81283762 5.953125 16.82421875 C3.51061763 19.79114682 1.6758323 21.81906943 -2.20703125 22.23828125 C-9.28164844 22.43980708 -9.28164844 22.43980708 -13.0625 20.125 C-16.47509989 16.38214851 -16.32843064 13.39230075 -16.29296875 8.484375 C-15.88537873 5.02801166 -14.53723498 3.31336131 -12 1 C-8.27533151 -0.86233425 -4.05504687 -0.57130829 0 0 Z " fill="#162E54" transform="translate(119,210)"/>
<path d="M0 0 C2.08304538 -0.05418326 4.16649768 -0.09287551 6.25 -0.125 C7.99023438 -0.15980469 7.99023438 -0.15980469 9.765625 -0.1953125 C12.84681133 -0.00925052 14.4785909 0.28304047 17 2 C18.1482685 4.296537 18.11561175 5.58313167 18.09765625 8.1328125 C18.09443359 8.93847656 18.09121094 9.74414062 18.08789062 10.57421875 C18.07951172 11.41597656 18.07113281 12.25773438 18.0625 13.125 C18.05798828 13.97449219 18.05347656 14.82398438 18.04882812 15.69921875 C18.03702874 17.79950909 18.01909306 19.8997633 18 22 C15.33333333 22 12.66666667 22 10 22 C8.0509375 22.12375 8.0509375 22.12375 6.0625 22.25 C2.97569244 22.24431527 2.16244259 22.10964875 -0.5 20.3125 C-2.31567651 17.51333204 -2.65420677 16.27103386 -2 13 C-0.6875 10.6875 -0.6875 10.6875 2 9 C5.69038284 8.66547609 9.30527017 8.77067194 13 9 C12.37371577 6.95310804 12.37371577 6.95310804 11 5 C8.58320293 4.29823412 8.58320293 4.29823412 5.875 4.25 C4.96492187 4.19328125 4.05484375 4.1365625 3.1171875 4.078125 C2.41851562 4.05234375 1.71984375 4.0265625 1 4 C0.67 2.68 0.34 1.36 0 0 Z " fill="#19395B" transform="translate(219,210)"/>
<path d="M0 0 C1.65 0 3.3 0 5 0 C5.33 0.66 5.66 1.32 6 2 C6.99 1.34 7.98 0.68 9 0 C15.9717362 -0.66397488 15.9717362 -0.66397488 19.23828125 1.4453125 C21.87673036 5.27135623 21.43395679 8.72183293 21.25 13.25 C21.23195312 14.09046875 21.21390625 14.9309375 21.1953125 15.796875 C21.14830798 17.86507395 21.07656724 19.93268441 21 22 C19.02 22 17.04 22 15 22 C14.93941406 20.85660156 14.87882813 19.71320313 14.81640625 18.53515625 C14.73201572 17.04425695 14.64736698 15.55337225 14.5625 14.0625 C14.52318359 13.30775391 14.48386719 12.55300781 14.44335938 11.77539062 C14.55961976 8.08055813 14.55961976 8.08055813 13 5 C10.54190002 4.7499227 10.54190002 4.7499227 8 5 C5.15385976 7.84614024 5.54420924 10.80369142 5.375 14.625 C5.33632812 15.33140625 5.29765625 16.0378125 5.2578125 16.765625 C5.16352276 18.50998524 5.08067109 20.25495691 5 22 C3.35 22 1.7 22 0 22 C0 14.74 0 7.48 0 0 Z " fill="#25395C" transform="translate(150,210)"/>
<path d="M0 0 C1.65 0 3.3 0 5 0 C5.06058594 1.14339844 5.12117187 2.28679687 5.18359375 3.46484375 C5.26798428 4.95574305 5.35263302 6.44662775 5.4375 7.9375 C5.47681641 8.69224609 5.51613281 9.44699219 5.55664062 10.22460938 C5.44038024 13.91944187 5.44038024 13.91944187 7 17 C9.45809998 17.2500773 9.45809998 17.2500773 12 17 C14.84614024 14.15385976 14.45579076 11.19630858 14.625 7.375 C14.68300781 6.31539062 14.68300781 6.31539062 14.7421875 5.234375 C14.83647724 3.49001476 14.91932891 1.74504309 15 0 C16.65 0 18.3 0 20 0 C20 7.26 20 14.52 20 22 C18.35 22 16.7 22 15 22 C14.67 21.34 14.34 20.68 14 20 C13.01 20.66 12.02 21.32 11 22 C7.2915303 22.40456033 4.96589829 22.63253516 1.79296875 20.5546875 C-0.88866367 16.73379948 -0.43464382 13.29507865 -0.25 8.75 C-0.23195312 7.90953125 -0.21390625 7.0690625 -0.1953125 6.203125 C-0.14830798 4.13492605 -0.07656724 2.06731559 0 0 Z " fill="#09214A" transform="translate(177,210)"/>
<path d="M0 0 C1.98 0 3.96 0 6 0 C6 7.92 6 15.84 6 24 C10.29 24 14.58 24 19 24 C19 25.65 19 27.3 19 29 C12.73 29 6.46 29 0 29 C0 19.43 0 9.86 0 0 Z " fill="#20365B" transform="translate(80,203)"/>
<path d="M0 0 C0.33 0 0.66 0 1 0 C1.13535156 0.58007812 1.27070313 1.16015625 1.41015625 1.7578125 C1.62542969 2.53898438 1.84070313 3.32015625 2.0625 4.125 C2.25972656 4.89070312 2.45695313 5.65640625 2.66015625 6.4453125 C4.69228302 10.31997988 7.17326541 12.85215457 11 15 C14.65872214 15.82118064 18.19800661 15.88522418 21.9375 15.875 C22.90751953 15.895625 23.87753906 15.91625 24.87695312 15.9375 C27.25216911 15.98430229 29.62442039 16.00446958 32 16 C31.01 16.66 30.02 17.32 29 18 C28.67 18.99 28.34 19.98 28 21 C24.35533908 23.72390447 20.40706215 25.64823446 16 26.75 C10.17014353 25.29253588 5.58839991 21.08477488 2 16.375 C-0.27681261 10.96757006 -0.11326184 5.77635383 0 0 Z " fill="#213D5D" transform="translate(149,165)"/>
<path d="M0 0 C1.65 0 3.3 0 5 0 C5 0.99 5 1.98 5 3 C5.66 3 6.32 3 7 3 C7 2.34 7 1.68 7 1 C8.98 0.67 10.96 0.34 13 0 C13 1.65 13 3.3 13 5 C12.195625 5.309375 11.39125 5.61875 10.5625 5.9375 C8.10919595 6.76335345 8.10919595 6.76335345 7 8 C6.76472227 10.34987262 6.58613583 12.70556039 6.4375 15.0625 C6.35371094 16.35285156 6.26992187 17.64320313 6.18359375 18.97265625 C6.12300781 19.97167969 6.06242188 20.97070312 6 22 C4.02 22 2.04 22 0 22 C0 14.74 0 7.48 0 0 Z " fill="#273A5E" transform="translate(131,210)"/>
<path d="M0 0 C5.54866272 1.34513036 8.79977788 5.52613784 12 10 C14.87303655 15.76509984 14.71830978 21.703327 14 28 C11.43172466 35.48041361 4.21577554 41.72947641 -2.58203125 45.390625 C-4.70166677 46.33861947 -6.81539523 47.21498836 -9 48 C-9.495 46.515 -9.495 46.515 -10 45 C-9.11957031 44.56429687 -8.23914063 44.12859375 -7.33203125 43.6796875 C0.86895842 39.47451855 6.93757383 36.20036581 10 27 C10.84653857 19.54154962 11.09169484 12.79414457 6.4453125 6.62109375 C4.37455886 4.2984917 2.29845383 2.1014435 0 0 Z " fill="#D9E3E6" transform="translate(173,99)"/>
<path d="M0 0 C1.875 1 1.875 1 3 3 C3.53967465 6.59783102 3.68523932 9.78179676 1.875 13 C-0.89815624 14.47901666 -2.91184125 14.38601984 -6 14 C-7.875 13 -7.875 13 -9 11 C-9.53967465 7.40216898 -9.68523932 4.21820324 -7.875 1 C-5.10184376 -0.47901666 -3.08815875 -0.38601984 0 0 Z " fill="#EEEFF0" transform="translate(117,214)"/>
<path d="M0 0 C7.85532851 -0.66072857 13.68374755 -0.00036653 20 5 C23.46530398 8.74754594 23.43576796 11.5928256 23.3046875 16.515625 C22.90363695 19.78572949 21.74907759 22.23062715 20 25 C18.68 24.01 17.36 23.02 16 22 C16.165 21.484375 16.33 20.96875 16.5 20.4375 C17.42188135 15.94332841 17.78319555 12.40322535 15.5 8.3125 C11.1111625 4.25282531 5.96982881 1.7462286 0 1 C0 0.67 0 0.34 0 0 Z " fill="#172B4F" transform="translate(209,93)"/>
<path d="M0 0 C1.65 0 3.3 0 5 0 C5.33 0.66 5.66 1.32 6 2 C6.33 1.67 6.66 1.34 7 1 C8.51928038 0.92820036 10.04167482 0.91607993 11.5625 0.9375 C12.38878906 0.94652344 13.21507812 0.95554688 14.06640625 0.96484375 C14.70449219 0.97644531 15.34257812 0.98804688 16 1 C13.13824239 3.3318025 10.44267513 4.69736617 7 6 C5.00383446 7.99616554 5.59016573 11.81701963 5.4375 14.5625 C5.39431641 15.27341797 5.35113281 15.98433594 5.30664062 16.71679688 C5.20028223 18.47761912 5.09961154 20.2387832 5 22 C3.35 22 1.7 22 0 22 C0 14.74 0 7.48 0 0 Z " fill="#203C5C" transform="translate(150,210)"/>
<path d="M0 0 C2.08304538 -0.05418326 4.16649768 -0.09287551 6.25 -0.125 C7.99023438 -0.15980469 7.99023438 -0.15980469 9.765625 -0.1953125 C12.84681133 -0.00925052 14.4785909 0.28304047 17 2 C18.1482685 4.296537 18.11561175 5.58313167 18.09765625 8.1328125 C18.09443359 8.93847656 18.09121094 9.74414062 18.08789062 10.57421875 C18.07951172 11.41597656 18.07113281 12.25773438 18.0625 13.125 C18.05798828 13.97449219 18.05347656 14.82398438 18.04882812 15.69921875 C18.03702874 17.79950909 18.01909306 19.8997633 18 22 C17.67 22 17.34 22 17 22 C16.67 17.05 16.34 12.1 16 7 C15.34 7 14.68 7 14 7 C14.33 7.99 14.66 8.98 15 10 C13 12 13 12 11.0546875 12.1953125 C9.03645833 12.13020833 7.01822917 12.06510417 5 12 C5 11.01 5 10.02 5 9 C7.64 9 10.28 9 13 9 C12.37371577 6.95310804 12.37371577 6.95310804 11 5 C8.58320293 4.29823412 8.58320293 4.29823412 5.875 4.25 C4.96492187 4.19328125 4.05484375 4.1365625 3.1171875 4.078125 C2.41851562 4.05234375 1.71984375 4.0265625 1 4 C0.67 2.68 0.34 1.36 0 0 Z " fill="#15264D" transform="translate(219,210)"/>
<path d="M0 0 C1.85684158 3.61595465 1.57311204 6.26357356 1.1875 10.3125 C-0.62413267 12.98681489 -1.69011077 13.27170359 -4.8125 14.3125 C-5.8025 13.6525 -6.7925 12.9925 -7.8125 12.3125 C-7.1525 11.6525 -6.4925 10.9925 -5.8125 10.3125 C-5.4948754 8.40243694 -5.4948754 8.40243694 -5.5625 6.3125 C-5.55734375 5.61125 -5.5521875 4.91 -5.546875 4.1875 C-5.65544485 2.0689331 -5.65544485 2.0689331 -7.8125 0.3125 C-8.6375 0.168125 -9.4625 0.02375 -10.3125 -0.125 C-12.8125 -0.6875 -12.8125 -0.6875 -14.8125 -3.6875 C-8.09363427 -4.94016988 -5.15813957 -4.80240581 0 0 Z " fill="#273B5D" transform="translate(124.8125,214.6875)"/>
<path d="M0 0 C1.65 0 3.3 0 5 0 C5 7.26 5 14.52 5 22 C3.35 22 1.7 22 0 22 C0 14.74 0 7.48 0 0 Z " fill="#1A3155" transform="translate(244,210)"/>
<path d="M0 0 C0.66 0 1.32 0 2 0 C2 0.66 2 1.32 2 2 C3.65 2 5.3 2 7 2 C7 3.32 7 4.64 7 6 C4.25 8.3125 4.25 8.3125 2.703125 9.36328125 C-2.37036614 14.23895278 -3.59244438 19.53133837 -4.0625 26.25 C-4.5973802 33.48739133 -4.5973802 33.48739133 -6.55859375 35.984375 C-7.03425781 36.31953125 -7.50992188 36.6546875 -8 37 C-8.55279621 25.34521325 -8.04810881 17.51683967 -0.25 8.4375 C0.82255636 7.28157267 1.9020701 6.1318547 3 5 C2.01 4.67 1.02 4.34 0 4 C0 2.68 0 1.36 0 0 Z " fill="#C7D6DB" transform="translate(135,127)"/>
<path d="M0 0 C8.75 -0.125 8.75 -0.125 11 1 C10.69291245 4.21893553 10.4329731 5.61615269 7.96875 7.80078125 C6.74671875 8.54908203 6.74671875 8.54908203 5.5 9.3125 C4.6853125 9.82425781 3.870625 10.33601563 3.03125 10.86328125 C1 12 1 12 0 12 C0 8.04 0 4.08 0 0 Z " fill="#0B3457" transform="translate(161,109)"/>
<path d="M0 0 C-1 3 -1 3 -2.93359375 4.1328125 C-8.98628192 6.5312256 -14.49446623 7.72316878 -21 8 C-21.33 6.68 -21.66 5.36 -22 4 C-21.45472656 3.89042969 -20.90945312 3.78085938 -20.34765625 3.66796875 C-15.40472428 2.62868562 -10.75977022 1.30111387 -6.04296875 -0.51171875 C-3.67675106 -1.07725835 -2.28221105 -0.76415606 0 0 Z " fill="#D8E2E5" transform="translate(136,129)"/>
<path d="M0 0 C1.32 0 2.64 0 4 0 C3.67 8.25 3.34 16.5 3 25 C3.66 25.33 4.32 25.66 5 26 C4.01 26.33 3.02 26.66 2 27 C0.06290362 23.74246076 -0.23715445 21.34390072 -0.1953125 17.578125 C-0.18564453 16.04091797 -0.18564453 16.04091797 -0.17578125 14.47265625 C-0.15902344 13.40917969 -0.14226562 12.34570312 -0.125 11.25 C-0.11597656 10.17105469 -0.10695313 9.09210938 -0.09765625 7.98046875 C-0.07411305 5.32008722 -0.04122799 2.66015664 0 0 Z " fill="#233B5C" transform="translate(114,137)"/>
<path d="M0 0 C0.99 0 1.98 0 3 0 C3.0272415 1.41655793 3.04650467 2.83327045 3.0625 4.25 C3.07410156 5.03890625 3.08570313 5.8278125 3.09765625 6.640625 C3 9 3 9 2.4375 11.07421875 C1.71806878 14.24100083 3.05999389 16.95880375 4 20 C4 20.99 4 21.98 4 23 C0.05914455 19.45323009 -1.83365355 16.4652544 -2.1953125 11.10546875 C-2.17210937 10.14253906 -2.14890625 9.17960938 -2.125 8.1875 C-2.10695312 7.21167969 -2.08890625 6.23585937 -2.0703125 5.23046875 C-2.04710937 4.49441406 -2.02390625 3.75835937 -2 3 C-1.34 3 -0.68 3 0 3 C0 2.01 0 1.02 0 0 Z " fill="#D8E0E3" transform="translate(148,161)"/>
<path d="M0 0 C0.99 0 1.98 0 3 0 C3 5.94 3 11.88 3 18 C5.64 18 8.28 18 11 18 C8.35805573 20.64194427 6.6985004 20.85205998 3 21 C0.7890625 19.5546875 0.7890625 19.5546875 -1 17 C-1.34461458 14.04111968 -1.05863406 11.20406887 -0.75 8.25 C-0.68425781 7.45722656 -0.61851562 6.66445312 -0.55078125 5.84765625 C-0.38624584 3.89673634 -0.19565518 1.94804503 0 0 Z " fill="#1F3D5B" transform="translate(178,211)"/>
<path d="M0 0 C0 0.66 0 1.32 0 2 C-10.00535795 7.4910099 -19.61326473 10.28369778 -31 11 C-27.93462304 8.95641536 -25.58320081 8.19036629 -22.0625 7.1875 C-16.3290875 5.4860954 -10.9216001 3.38333946 -5.4609375 0.953125 C-3 0 -3 0 0 0 Z " fill="#C5D1D6" transform="translate(148,105)"/>
<path d="M0 0 C1.22589844 0.01353516 1.22589844 0.01353516 2.4765625 0.02734375 C3.41628906 0.04474609 3.41628906 0.04474609 4.375 0.0625 C2.375 3.0625 2.375 3.0625 0 4 C-2.96413277 5.19976803 -4.50495822 6.70689802 -6.625 9.0625 C-7.285 8.7325 -7.945 8.4025 -8.625 8.0625 C-8.955 10.3725 -9.285 12.6825 -9.625 15.0625 C-9.955 15.0625 -10.285 15.0625 -10.625 15.0625 C-11.2521777 7.06598432 -11.2521777 7.06598432 -8.75 3.0625 C-5.68929905 0.18184028 -4.09501886 -0.05850027 0 0 Z " fill="#0F204D" transform="translate(113.625,209.9375)"/>
<path d="M0 0 C1.65 0 3.3 0 5 0 C4.67 0.66 4.34 1.32 4 2 C3.01 1.67 2.02 1.34 1 1 C1 7.27 1 13.54 1 20 C1.66 20 2.32 20 3 20 C2.97679687 19.31292969 2.95359375 18.62585938 2.9296875 17.91796875 C2.91164062 17.01691406 2.89359375 16.11585938 2.875 15.1875 C2.85179687 14.29417969 2.82859375 13.40085938 2.8046875 12.48046875 C3 10 3 10 5 7 C5 11.95 5 16.9 5 22 C3.35 22 1.7 22 0 22 C0 14.74 0 7.48 0 0 Z " fill="#041442" transform="translate(150,210)"/>
<path d="M0 0 C-0.33 0.66 -0.66 1.32 -1 2 C-1.66 2 -2.32 2 -3 2 C-3.33 2.99 -3.66 3.98 -4 5 C-4 4.01 -4 3.02 -4 2 C-5.7634375 2.495 -5.7634375 2.495 -7.5625 3 C-11.5011676 3.9969533 -14.95139129 4.16869203 -19 4 C-18.67 3.01 -18.34 2.02 -18 1 C-16.12739946 0.63335815 -14.25175307 0.28225634 -12.375 -0.0625 C-11.33085938 -0.25972656 -10.28671875 -0.45695312 -9.2109375 -0.66015625 C-5.89522371 -1.01108946 -3.24598855 -0.6969615 0 0 Z " fill="#30B5C4" transform="translate(118,120)"/>
<path d="M0 0 C6.70344546 0.35472778 11.27938966 3.11600085 16.9375 6.5625 C17.81212891 7.08263672 18.68675781 7.60277344 19.58789062 8.13867188 C21.73167148 9.41556867 23.8684991 10.70274478 26 12 C23 13 23 13 21.09887695 12.28735352 C20.40238037 11.90506592 19.70588379 11.52277832 18.98828125 11.12890625 C17.85229492 10.51499023 17.85229492 10.51499023 16.69335938 9.88867188 C15.90767578 9.45103516 15.12199219 9.01339844 14.3125 8.5625 C13.51521484 8.12873047 12.71792969 7.69496094 11.89648438 7.24804688 C9.92589446 6.17425237 7.96090073 5.09135818 6 4 C6 3.34 6 2.68 6 2 C3.03 1.505 3.03 1.505 0 1 C0 0.67 0 0.34 0 0 Z " fill="#182B52" transform="translate(163,76)"/>
<path d="M0 0 C2.05078125 0.03255208 4.1015625 0.06510417 6.15234375 0.09765625 C5.27734375 4.97265625 5.27734375 4.97265625 4.15234375 6.09765625 C1.81936942 6.13858562 -0.5147085 6.14007348 -2.84765625 6.09765625 C-2.89037725 4.4315372 -2.88829457 2.7638274 -2.84765625 1.09765625 C-1.84765625 0.09765625 -1.84765625 0.09765625 0 0 Z " fill="#DBDDDF" transform="translate(225.84765625,221.90234375)"/>
<path d="M0 0 C5.62756071 1.36425714 8.67061389 5.55796557 12 10 C13.47309931 12.70068207 14.15835952 13.98649909 13.6875 17 C13.460625 17.66 13.23375 18.32 13 19 C12.65939189 20.66519519 12.32441604 22.33157466 12 24 C11.67 24 11.34 24 11 24 C10.98582031 23.29875 10.97164062 22.5975 10.95703125 21.875 C10.46770234 12.14132219 7.08228185 6.47522912 0 0 Z " fill="#C1D2D7" transform="translate(173,99)"/>
<path d="M0 0 C2.67716964 0.86827124 4.704612 1.75384333 6.875 3.5625 C8.63669028 7.3794956 7.71759164 10.95382062 7 15 C6.01 15 5.02 15 4 15 C4 11.7 4 8.4 4 5 C3.01 4.67 2.02 4.34 1 4 C0.3125 1.9375 0.3125 1.9375 0 0 Z " fill="#1A3B5B" transform="translate(224,96)"/>
<path d="M0 0 C0.7425 0.2475 1.485 0.495 2.25 0.75 C1.26 1.245 1.26 1.245 0.25 1.75 C0.146875 2.719375 0.04375 3.68875 -0.0625 4.6875 C-0.289375 5.698125 -0.51625 6.70875 -0.75 7.75 C-3.3125 9.125 -3.3125 9.125 -5.75 9.75 C-6.75 8.75 -6.75 8.75 -7.0625 6.4375 C-6.75 3.75 -6.75 3.75 -5.0625 1.375 C-2.75 -0.25 -2.75 -0.25 0 0 Z " fill="#293D5F" transform="translate(223.75,219.25)"/>
<path d="M0 0 C-0.33 1.32 -0.66 2.64 -1 4 C-2.98 4 -4.96 4 -7 4 C-7 4.66 -7 5.32 -7 6 C-5.68 6.33 -4.36 6.66 -3 7 C-4.65 7 -6.3 7 -8 7 C-8.33 5.68 -8.66 4.36 -9 3 C-11.97 2.505 -11.97 2.505 -15 2 C-15 1.67 -15 1.34 -15 1 C-9.92928099 0.28832014 -5.11791642 -0.10662326 0 0 Z " fill="#C4E1E6" transform="translate(110,129)"/>
<path d="M0 0 C6.8359375 -0.1953125 6.8359375 -0.1953125 9 0 C9.66 0.66 10.32 1.32 11 2 C7.93109813 3.53445094 5.29905734 2.54984289 2 2 C2.33 4.97 2.66 7.94 3 11 C2.01 11.33 1.02 11.66 0 12 C0 8.04 0 4.08 0 0 Z " fill="#15254D" transform="translate(161,109)"/>
<path d="M0 0 C0.33 0 0.66 0 1 0 C1.17015625 0.59167969 1.3403125 1.18335938 1.515625 1.79296875 C3.00110338 6.63657645 4.46859353 10.22504826 8 14 C3.25 15.125 3.25 15.125 1 14 C-0.41904116 9.45906828 -0.09226843 4.7056901 0 0 Z " fill="#2C4161" transform="translate(149,165)"/>
<path d="M0 0 C0.33 0 0.66 0 1 0 C1 2.31 1 4.62 1 7 C1.99 7 2.98 7 4 7 C4 4.69 4 2.38 4 0 C4.33 0 4.66 0 5 0 C5.29341888 5.67276511 5.00559652 8.99067246 2 14 C0.68 13.01 -0.64 12.02 -2 11 C-1.34 7.37 -0.68 3.74 0 0 Z " fill="#091C49" transform="translate(227,104)"/>
<path d="M0 0 C0.99 0 1.98 0 3 0 C3.74926071 3.66305234 4.2380014 6.42355152 3 10 C3.66 10.33 4.32 10.66 5 11 C3.33333333 11 1.66666667 11 0 11 C-1.35015859 6.94952424 -0.62084998 4.2079832 0 0 Z " fill="#1F3C5C" transform="translate(104,217)"/>
<path d="M0 0 C1.65 0 3.3 0 5 0 C5.98120464 3.05263664 5.98120464 4.94736336 5 8 C3.68 7.01 2.36 6.02 1 5 C0.67 5.66 0.34 6.32 0 7 C0 4.69 0 2.38 0 0 Z " fill="#70778B" transform="translate(142,241)"/>
<path d="M0 0 C0 0.99 0 1.98 0 3 C-1.62318979 3.36237263 -3.2486358 3.71465157 -4.875 4.0625 C-5.77992187 4.25972656 -6.68484375 4.45695312 -7.6171875 4.66015625 C-10 5 -10 5 -12 4 C-7.96889361 0.80291562 -5.14313574 -0.13900367 0 0 Z " fill="#DCECEE" transform="translate(114,122)"/>
<path d="M0 0 C0.66 0 1.32 0 2 0 C3.06775224 1.96466413 4.06553465 3.96855359 5 6 C4.67 6.66 4.34 7.32 4 8 C1.525 7.01 1.525 7.01 -1 6 C-1 6.66 -1 7.32 -1 8 C-1.66 8 -2.32 8 -3 8 C-1.125 1.125 -1.125 1.125 0 0 Z " fill="#6C7584" transform="translate(222,241)"/>
<path d="M0 0 C1.65 0.33 3.3 0.66 5 1 C4.67 2.65 4.34 4.3 4 6 C2.35 5.67 0.7 5.34 -1 5 C-0.67 3.35 -0.34 1.7 0 0 Z " fill="#1F2F51" transform="translate(206,226)"/>
<path d="M0 0 C1.98 0 3.96 0 6 0 C4.68 0.33 3.36 0.66 2 1 C2 1.66 2 2.32 2 3 C2.99 3.33 3.98 3.66 5 4 C4.01 4 3.02 4 2 4 C2 4.66 2 5.32 2 6 C3.32 6 4.64 6 6 6 C6 6.66 6 7.32 6 8 C4.02 8 2.04 8 0 8 C0 5.36 0 2.72 0 0 Z " fill="#727989" transform="translate(80,241)"/>
<path d="M0 0 C-0.33 0.99 -0.66 1.98 -1 3 C-3.31 3.33 -5.62 3.66 -8 4 C-8 3.01 -8 2.02 -8 1 C-4.93251126 -0.86240388 -3.40254489 -1.2151946 0 0 Z " fill="#E8F0F1" transform="translate(136,129)"/>
<path d="M0 0 C0.598125 0.61875 1.19625 1.2375 1.8125 1.875 C4.00811144 4.13676954 4.00811144 4.13676954 7 6 C5.35 6.33 3.7 6.66 2 7 C3.65 7 5.3 7 7 7 C7 7.33 7 7.66 7 8 C4.69 8 2.38 8 0 8 C-1.125 6.25 -1.125 6.25 -2 4 C-1.125 1.75 -1.125 1.75 0 0 Z " fill="#0D1B48" transform="translate(221,224)"/>
<path d="M0 0 C0 1.65 0 3.3 0 5 C-2.875 5.125 -2.875 5.125 -6 5 C-6.66 4.34 -7.32 3.68 -8 3 C-7.34 3 -6.68 3 -6 3 C-6 2.34 -6 1.68 -6 1 C-4 0 -4 0 0 0 Z " fill="#1A2D4F" transform="translate(144,210)"/>
<path d="M0 0 C-0.9520721 1.00596297 -1.91187346 2.00461563 -2.875 3 C-3.40867188 3.556875 -3.94234375 4.11375 -4.4921875 4.6875 C-6 6 -6 6 -8 6 C-8 5.34 -8 4.68 -8 4 C-8.66 3.67 -9.32 3.34 -10 3 C-9 1 -9 1 -5.5625 -0.1875 C-2 -1 -2 -1 0 0 Z " fill="#203558" transform="translate(139,132)"/>
<path d="M0 0 C1.32 0.99 2.64 1.98 4 3 C4.33 2.01 4.66 1.02 5 0 C5.66 0 6.32 0 7 0 C7 2.31 7 4.62 7 7 C3.125 5.125 3.125 5.125 2 4 C1.34 4.99 0.68 5.98 0 7 C0 4.69 0 2.38 0 0 Z " fill="#434F62" transform="translate(114,241)"/>
<path d="M0 0 C0.66 0.99 1.32 1.98 2 3 C0 5 0 5 -1.9453125 5.1953125 C-3.96354167 5.13020833 -5.98177083 5.06510417 -8 5 C-8 4.01 -8 3.02 -8 2 C-5.36 2 -2.72 2 0 2 C0 1.34 0 0.68 0 0 Z " fill="#091C4C" transform="translate(232,217)"/>
<path d="M0 0 C1.65 0 3.3 0 5 0 C5 1.65 5 3.3 5 5 C3.35 5 1.7 5 0 5 C0 3.35 0 1.7 0 0 Z " fill="#182E53" transform="translate(244,201)"/>
<path d="M0 0 C0.33 0.66 0.66 1.32 1 2 C1.99 2.33 2.98 2.66 4 3 C2.68 5.31 1.36 7.62 0 10 C-0.33 10 -0.66 10 -1 10 C-1 1 -1 1 0 0 Z " fill="#0E244C" transform="translate(221,119)"/>
<path d="M0 0 C5.70709064 0.46588495 9.15939723 1.93757784 14 5 C11.39417629 5.93065133 10.35801776 6.14917407 7.75 5.0625 C6.88375 4.5365625 6.88375 4.5365625 6 4 C6 3.34 6 2.68 6 2 C3.03 1.505 3.03 1.505 0 1 C0 0.67 0 0.34 0 0 Z " fill="#0E214B" transform="translate(163,76)"/>
<path d="M0 0 C1.67542976 0.28604898 3.34385343 0.61781233 5 1 C5 1.99 5 2.98 5 4 C3.35 4.33 1.7 4.66 0 5 C-0.5625 3.0625 -0.5625 3.0625 -1 1 C-0.67 0.67 -0.34 0.34 0 0 Z " fill="#F4F4F5" transform="translate(231,242)"/>
<path d="M0 0 C0 0.99 0 1.98 0 3 C-3.08888522 5.05925681 -3.70935927 5.2390374 -7.1875 5.125 C-9.0746875 5.063125 -9.0746875 5.063125 -11 5 C-11 4.67 -11 4.34 -11 4 C-9.02 4 -7.04 4 -5 4 C-4.67 3.01 -4.34 2.02 -4 1 C-1.9375 0.3125 -1.9375 0.3125 0 0 Z " fill="#10214D" transform="translate(122,227)"/>
<path d="M0 0 C1.32 0 2.64 0 4 0 C4.33 0.99 4.66 1.98 5 3 C4 4 4 4 0.4375 4.0625 C-0.696875 4.041875 -1.83125 4.02125 -3 4 C-2.34 3.67 -1.68 3.34 -1 3 C-0.67 2.01 -0.34 1.02 0 0 Z " fill="#EAEBEC" transform="translate(226,224)"/>
<path d="M0 0 C0.66 0.33 1.32 0.66 2 1 C-1.17320782 4.53586014 -3.16743695 6.58578031 -8 7 C-5.4837822 4.39391727 -2.94865641 2.10618315 0 0 Z " fill="#132950" transform="translate(178,138)"/>
<path d="M0 0 C0.66 0 1.32 0 2 0 C2 0.66 2 1.32 2 2 C3.65 2 5.3 2 7 2 C7 3.32 7 4.64 7 6 C6.67 5.34 6.34 4.68 6 4 C4.02 4.33 2.04 4.66 0 5 C0 3.35 0 1.7 0 0 Z " fill="#D0D9DC" transform="translate(135,127)"/>
<path d="M0 0 C0.33 0 0.66 0 1 0 C1 2.31 1 4.62 1 7 C-3.455 7.495 -3.455 7.495 -8 8 C-7.01 7.01 -6.02 6.02 -5 5 C-2.3125 5.3125 -2.3125 5.3125 0 6 C0 4.02 0 2.04 0 0 Z " fill="#20395A" transform="translate(148,98)"/>
<path d="M0 0 C2.31 0 4.62 0 7 0 C6.67 1.32 6.34 2.64 6 4 C4.35 4 2.7 4 1 4 C0.67 2.68 0.34 1.36 0 0 Z " fill="#DDE8EB" transform="translate(114,133)"/>
<path d="M0 0 C0 0.66 0 1.32 0 2 C-4.455 3.485 -4.455 3.485 -9 5 C-9.66 4.34 -10.32 3.68 -11 3 C-9.54293274 2.49632243 -8.08429904 1.99717444 -6.625 1.5 C-5.81289062 1.2215625 -5.00078125 0.943125 -4.1640625 0.65625 C-2 0 -2 0 0 0 Z " fill="#31B5C4" transform="translate(130,114)"/>
<path d="M0 0 C0.99 0.66 1.98 1.32 3 2 C0.69 3.65 -1.62 5.3 -4 7 C-4 4 -4 4 -2 1.8125 C-1.34 1.214375 -0.68 0.61625 0 0 Z " fill="#31B4C3" transform="translate(140,133)"/>
<path d="M0 0 C-1.49097658 3.7952131 -3.75700849 5.61042731 -7 8 C-6.44414399 4.1090079 -4.34122117 0 0 0 Z " fill="#ECEFF0" transform="translate(141,131)"/>
<path d="M0 0 C4.455 0.99 4.455 0.99 9 2 C9 2.33 9 2.66 9 3 C6.36 3.33 3.72 3.66 1 4 C0.67 2.68 0.34 1.36 0 0 Z " fill="#09234C" transform="translate(180,226)"/>
<path d="M0 0 C2.4375 0.6875 2.4375 0.6875 5 2 C5.8125 4.625 5.8125 4.625 6 7 C1.2 4.53846154 1.2 4.53846154 0.1875 1.8125 C0.125625 1.214375 0.06375 0.61625 0 0 Z " fill="#1E3156" transform="translate(224,96)"/>
<path d="M0 0 C0.33 0 0.66 0 1 0 C3 6.625 3 6.625 3 10 C0.9375 8.375 0.9375 8.375 -1 6 C-0.75 2.75 -0.75 2.75 0 0 Z " fill="#D1D7DB" transform="translate(149,174)"/>
<path d="M0 0 C0.33 0 0.66 0 1 0 C1.39063507 1.43333021 1.76198474 2.87192679 2.125 4.3125 C2.33382812 5.11300781 2.54265625 5.91351563 2.7578125 6.73828125 C3 9 3 9 1 12 C0.03929566 9.11788698 -0.10581883 7.30149956 -0.0625 4.3125 C-0.05347656 3.50425781 -0.04445312 2.69601563 -0.03515625 1.86328125 C-0.02355469 1.24839844 -0.01195312 0.63351563 0 0 Z " fill="#121C40" transform="translate(149,165)"/>
<path d="M0 0 C0.33 0 0.66 0 1 0 C1 2.64 1 5.28 1 8 C0.34 8 -0.32 8 -1 8 C-1 7.34 -1 6.68 -1 6 C-2.32 5.67 -3.64 5.34 -5 5 C-3.68 5 -2.36 5 -1 5 C-0.67 3.35 -0.34 1.7 0 0 Z " fill="#FAFAFA" transform="translate(187,241)"/>
<path d="M0 0 C1.2065625 0.0309375 1.2065625 0.0309375 2.4375 0.0625 C2.7675 1.0525 3.0975 2.0425 3.4375 3.0625 C0.14773192 4.15908936 -1.27553767 3.86203138 -4.5625 3.0625 C-3.06867284 0.07484568 -3.06867284 0.07484568 0 0 Z " fill="#3D4F67" transform="translate(227.5625,227.9375)"/>
<path d="M0 0 C0.99 0.33 1.98 0.66 3 1 C4.1875 4.0625 4.1875 4.0625 5 7 C1.63279613 5.60667426 0.0140476 4.0210714 -2 1 C-1.34 0.67 -0.68 0.34 0 0 Z " fill="#2C3F5D" transform="translate(126,165)"/>
<path d="M0 0 C0 0.66 0 1.32 0 2 C-3 4 -3 4 -5.1875 3.625 C-5.785625 3.41875 -6.38375 3.2125 -7 3 C-5.40442685 -0.19114631 -3.35905282 0 0 0 Z " fill="#CAD6DA" transform="translate(148,105)"/>
</svg>
